<svg id="Group_9637" data-name="Group 9637" xmlns="http://www.w3.org/2000/svg" width="540" height="461.633" viewBox="0 0 540 461.633">
  <g id="Background_2" data-name="Background 2" transform="translate(17.11 0)">
    <g id="Group_9629" data-name="Group 9629" transform="translate(0)">
      <g id="Group_9628" data-name="Group 9628">
        <g id="Group_9626" data-name="Group 9626" transform="translate(388.842 37.495)">
          <path id="Path_3930" data-name="Path 3930" d="M471.439,307.834c-16.665-25.361-1.449-52.63-3.986-80.841s-29.346-34.37-24.273-58.282c5.881-27.725-9.783-54.344-27.536-54.344s-33.416,26.619-27.534,54.344c5.072,23.912-21.738,30.071-24.275,58.282s12.681,55.48-3.984,80.841-12.292,58.954-2.9,75.624a65.306,65.306,0,0,0,8.956,12.256c26.653,28.864,72.823,28.864,99.475,0a65.3,65.3,0,0,0,8.954-12.256C483.731,366.788,488.106,333.195,471.439,307.834Z" transform="translate(-348.622 -114.367)" fill="#d1e3ff"/>
          <path id="Rectangle_632" data-name="Rectangle 632" d="M6.22,0h4.407a6.22,6.22,0,0,1,6.22,6.22V150.258a0,0,0,0,1,0,0H0a0,0,0,0,1,0,0V6.22A6.22,6.22,0,0,1,6.22,0Z" transform="translate(58.6 212.719)" fill="#eef9ff"/>
        </g>
        <g id="Group_9627" data-name="Group 9627" transform="translate(262.439 220.918)">
          <path id="Path_3931" data-name="Path 3931" d="M325.908,422.5H302.973V280.672A11.5,11.5,0,0,1,314.441,269.2h0a11.5,11.5,0,0,1,11.468,11.468Z" transform="translate(-238.388 -242.942)" fill="#d1e3ff"/>
          <ellipse id="Ellipse_56" data-name="Ellipse 56" cx="70.647" cy="70.647" rx="70.647" ry="70.647" transform="translate(5.405)" fill="#eef9ff"/>
          <ellipse id="Ellipse_57" data-name="Ellipse 57" cx="27.841" cy="27.841" rx="27.841" ry="27.841" transform="translate(98.316 63.054) rotate(-76.049)" fill="#eef9ff"/>
          <ellipse id="Ellipse_58" data-name="Ellipse 58" cx="16.484" cy="16.484" rx="16.484" ry="16.484" transform="translate(0 39.881) rotate(-80.747)" fill="#eef9ff"/>
          <ellipse id="Ellipse_59" data-name="Ellipse 59" cx="11.57" cy="11.57" rx="11.57" ry="11.57" transform="translate(25.267 6.157)" fill="#eef9ff"/>
        </g>
        <path id="Path_3933" data-name="Path 3933" d="M238.578,121.157c6.875-20.14,1.418-34.477-15.39-34.477-10.54,0-23.61,5.643-36.337,14.832-1.437-5.238-5.487-8.377-12-8.377-11.466,0-27.269,9.7-39.668,23.385-3-3.051-7.34-4.92-12.919-5.221-10.972-.618-24.262,4.955-35.815,14.02a6.213,6.213,0,0,0-5.087-2.611c-6.323-.352-14.882,5.273-19.134,12.556-.264.459-.5.9-.735,1.341H241.916C242.455,130.257,241.332,124.948,238.578,121.157Z" transform="translate(-61.491 -86.68)" fill="#eef9ff"/>
        <path id="Path_3934" data-name="Path 3934" d="M215.295,206.837C218.653,197,215.987,190,207.777,190c-5.149,0-11.533,2.757-17.75,7.245-.7-2.558-2.68-4.092-5.862-4.092-5.6,0-13.32,4.738-19.376,11.423a9.263,9.263,0,0,0-6.311-2.55c-5.359-.3-11.851,2.42-17.5,6.848A3.027,3.027,0,0,0,138.5,207.6c-3.089-.173-7.27,2.574-9.346,6.132-.13.225-.245.44-.36.655h88.132A11.094,11.094,0,0,0,215.295,206.837Z" transform="translate(-37.65 -50.082)" fill="#eef9ff"/>
        <path id="Path_3935" data-name="Path 3935" d="M405.486,157.669a14.469,14.469,0,0,0-2.091-.15c.649-9.826-3.108-16.1-11.132-16.1-5.788,0-12.892,3.276-20.133,8.819,2.072-19.074-4.562-31.471-19.585-31.471-12.118,0-27.46,8.063-42.614,21.215-1.327-7.482-5.792-11.967-13.294-11.967-13.179,0-31.906,13.858-46.92,33.41,0,0-.005.024-.019,0-3.243-4.359-8.119-7.056-14.526-7.483-12.55-.883-28.13,7.08-41.945,20.056a6.414,6.414,0,0,0-5.7-3.73c-6.862-.478-16.319,6.676-21.811,16.252H416.532C422.419,172.006,417.728,159.308,405.486,157.669Z" transform="translate(-24.572 -75.314)" fill="#eef9ff"/>
      </g>
    </g>
  </g>
  <g id="Objects" transform="translate(0 9.823)">
    <g id="Group_9636" data-name="Group 9636" transform="translate(0)">
      <ellipse id="Ellipse_60" data-name="Ellipse 60" cx="159.123" cy="15.335" rx="159.123" ry="15.335" transform="translate(216.721 421.141)" fill="#f0f6ff"/>
      <g id="Group_9633" data-name="Group 9633" transform="translate(0)">
        <g id="Group_9631" data-name="Group 9631">
          <path id="Path_3936" data-name="Path 3936" d="M48.856,150.562,357.582,195l41.432,41.812Z" transform="translate(-48.856 -73.874)" fill="#9fc6ff"/>
          <path id="Path_3937" data-name="Path 3937" d="M48.856,150.562,357.582,195l-14.327,60.46Z" transform="translate(-48.856 -73.874)" fill="#0053cc"/>
          <g id="Group_9630" data-name="Group 9630" transform="translate(111.424)">
            <path id="Path_3938" data-name="Path 3938" d="M307.769,100.627l17.926,84a8.482,8.482,0,0,1-6.506,10.036L159.283,228.787a8.481,8.481,0,0,1-10.036-6.507l-17.926-84a8.467,8.467,0,0,1,6.506-10.036L297.733,94.12a8.47,8.47,0,0,1,10.036,6.507Z" transform="translate(-131.135 -93.934)" fill="#004daa"/>
            <path id="Path_3939" data-name="Path 3939" d="M303.437,95.138,250,160.726a34.43,34.43,0,0,1-42.182,9l-75.554-38.062a8.465,8.465,0,0,1,5.158-3.421L297.332,94.12A8.454,8.454,0,0,1,303.437,95.138Z" transform="translate(-130.734 -93.934)" fill="#407bff"/>
          </g>
          <path id="Path_3940" data-name="Path 3940" d="M48.857,150.562,303.5,211.077l39.759,44.384Z" transform="translate(-48.857 -73.874)" fill="#9fc6ff"/>
          <rect id="Rectangle_633" data-name="Rectangle 633" width="1.355" height="32.836" transform="translate(92.202 136.194) rotate(-59.638)" fill="#407bff"/>
          <rect id="Rectangle_634" data-name="Rectangle 634" width="1.355" height="11.813" transform="matrix(0.505, -0.863, 0.863, 0.505, 133.052, 160.125)" fill="#407bff"/>
          <path id="Path_3941" data-name="Path 3941" d="M48.856,150.562,303.5,211.077,254,270.738Z" transform="translate(-48.856 -73.874)" fill="#407bff"/>
        </g>
        <g id="Group_9632" data-name="Group 9632" transform="translate(248.416 180.447)">
          <path id="Path_3942" data-name="Path 3942" d="M311.919,260.976a2.7,2.7,0,0,1-1-.192L269.438,244.36a2.709,2.709,0,0,1,1.995-5.036l41.486,16.424a2.71,2.71,0,0,1-1,5.229Z" transform="translate(-219.741 -222.947)" fill="#0053cc"/>
          <path id="Path_3943" data-name="Path 3943" d="M305.091,241.42a2.7,2.7,0,0,1-1-.191l-22.28-8.82a2.709,2.709,0,1,1,1.995-5.036l22.28,8.82a2.709,2.709,0,0,1-1,5.227Z" transform="translate(-215.357 -227.18)" fill="#9fc6ff"/>
          <path id="Path_3944" data-name="Path 3944" d="M275.45,260.566a2.7,2.7,0,0,1-1-.192L234,244.359A2.709,2.709,0,1,1,236,239.323l40.448,16.015a2.709,2.709,0,0,1-1,5.227Z" transform="translate(-232.293 -222.946)" fill="#0053cc"/>
        </g>
      </g>
      <g id="Group_9635" data-name="Group 9635" transform="translate(286.841 20.941)">
        <path id="Path_3945" data-name="Path 3945" d="M375.828,164.821c3.586,7.005,6.88,14.015,10,21.2,3.1,7.183,6.049,14.443,8.585,22.062l.926,2.889c.156.513.4,1.357.521,1.956.127.627.264,1.272.337,1.844a48.368,48.368,0,0,1,.46,6.587,115.473,115.473,0,0,1-.562,12.12,194.663,194.663,0,0,1-3.688,23.324l-7.425-.823c-.1-7.628-.168-15.331-.432-22.846-.134-3.75-.348-7.49-.729-11.019a44.263,44.263,0,0,0-.8-4.908c-.077-.382-.179-.672-.265-.986-.107-.336-.153-.414-.3-.817l-1.021-2.561c-2.829-6.852-6.014-13.766-9.262-20.644l-9.83-20.629Z" transform="translate(-224.649 -89.764)" fill="#ff8b7b"/>
        <path id="Path_3946" data-name="Path 3946" d="M380.05,230.42l-3.467,6.484,11.074,3.09s2.108-5.218-.4-9.329Z" transform="translate(-219.605 -66.526)" fill="#ff8b7b"/>
        <path id="Path_3947" data-name="Path 3947" d="M373.448,244.556l10.181.8,5.138-7.063-11.073-3.089Z" transform="translate(-220.716 -64.83)" fill="#ff8b7b"/>
        <path id="Path_3948" data-name="Path 3948" d="M338.371,130.69c-.16.785-.706,1.338-1.22,1.234s-.8-.826-.641-1.613.706-1.339,1.22-1.234S338.531,129.9,338.371,130.69Z" transform="translate(-233.816 -102.43)" fill="#0f264c"/>
        <path id="Path_3949" data-name="Path 3949" d="M338.745,131.264s-2.71,4.174-5.123,5.963c1.127,1.58,3.613,1.468,3.613,1.468Z" transform="translate(-234.823 -101.651)" fill="#ff5652"/>
        <path id="Path_3950" data-name="Path 3950" d="M341.714,128.1a.47.47,0,0,1-.347-.152,3.734,3.734,0,0,0-3.159-1.269.472.472,0,0,1-.156-.93,4.679,4.679,0,0,1,4.009,1.56.471.471,0,0,1-.347.791Z" transform="translate(-233.392 -103.617)" fill="#0f264c"/>
        <path id="Path_3951" data-name="Path 3951" d="M360.274,138.432c-1.426,7.278-2.851,20.614,2.241,25.47,0,0-1.989,7.382-15.513,7.382-14.871,0-7.107-7.382-7.107-7.382,8.116-1.938,7.907-7.959,6.494-13.614Z" transform="translate(-233.319 -99.112)" fill="#ff8b7b"/>
        <path id="Path_3952" data-name="Path 3952" d="M364.512,163.408c1.074-3.567,2.256-7.649-.19-8.927-2.691-1.407-17.418-2.841-22.5-.2s-3.639,9.874-3.639,9.874Z" transform="translate(-233.273 -94.021)" fill="#0f264c"/>
        <path id="Path_3953" data-name="Path 3953" d="M381.313,410.64a3.2,3.2,0,0,1-2.389-.658.958.958,0,0,1,.008-1.119,1.093,1.093,0,0,1,.739-.549c1.461-.336,4.2,1.54,4.316,1.62a.236.236,0,0,1-.079.424A12.609,12.609,0,0,1,381.313,410.64Zm-1.243-1.9a1.219,1.219,0,0,0-.29.031.635.635,0,0,0-.436.317c-.213.387-.087.551-.046.605.427.558,2.461.567,3.943.317A7.74,7.74,0,0,0,380.07,408.742Z" transform="translate(-218.837 -3.525)" fill="#407bff"/>
        <path id="Path_3954" data-name="Path 3954" d="M383.288,410.995a.258.258,0,0,1-.112-.027c-1.028-.558-3.02-2.737-2.81-3.847a.773.773,0,0,1,.75-.619,1.312,1.312,0,0,1,1,.3c1.157.944,1.393,3.815,1.4,3.937a.233.233,0,0,1-.107.215A.217.217,0,0,1,383.288,410.995Zm-2.008-4.032a.7.7,0,0,0-.106.007c-.307.037-.333.179-.345.238-.123.657,1.144,2.3,2.168,3.078-.116-.838-.435-2.511-1.177-3.117A.831.831,0,0,0,381.279,406.963Z" transform="translate(-218.271 -4.156)" fill="#407bff"/>
        <path id="Path_3955" data-name="Path 3955" d="M337.332,410.649c-1.276,0-2.507-.176-2.921-.75a.9.9,0,0,1,.019-1.031,1.173,1.173,0,0,1,.748-.551c1.647-.44,5.133,1.532,5.28,1.616a.235.235,0,0,1,.115.242.24.24,0,0,1-.187.194A17.516,17.516,0,0,1,337.332,410.649Zm-1.576-1.931a1.714,1.714,0,0,0-.455.054.714.714,0,0,0-.462.329c-.168.294-.107.437-.046.521.448.622,2.962.654,4.828.4A10.642,10.642,0,0,0,335.755,408.718Z" transform="translate(-234.597 -3.532)" fill="#407bff"/>
        <path id="Path_3956" data-name="Path 3956" d="M339.666,410.995a.234.234,0,0,1-.1-.019c-1.2-.539-3.579-2.69-3.4-3.816.043-.264.23-.592.878-.658a1.733,1.733,0,0,1,1.307.4c1.266,1.04,1.533,3.719,1.544,3.833a.238.238,0,0,1-.1.214A.235.235,0,0,1,339.666,410.995Zm-2.427-4.032c-.046,0-.093,0-.142.007-.424.043-.451.21-.459.265-.108.676,1.507,2.366,2.732,3.1a5.531,5.531,0,0,0-1.314-3.069A1.25,1.25,0,0,0,337.239,406.963Z" transform="translate(-233.924 -4.156)" fill="#407bff"/>
        <path id="Path_3957" data-name="Path 3957" d="M349.689,415.67H339.74l-.991-23.039H348.7Z" transform="translate(-233.007 -9.066)" fill="#ff8b7b"/>
        <path id="Path_3958" data-name="Path 3958" d="M394.846,415.67H384.9l-5-23.039h9.949Z" transform="translate(-218.431 -9.066)" fill="#ff8b7b"/>
        <path id="Path_3959" data-name="Path 3959" d="M387.124,408.793H398.3a.868.868,0,0,1,.848.68l1.965,8.843a1.462,1.462,0,0,1-1.456,1.769c-3.9-.066-5.8-.3-10.713-.3-3.024,0-9.255.314-13.43.314-4.084,0-4.721-4.129-3.012-4.5,7.665-1.676,10.554-3.99,13.007-6.2A2.409,2.409,0,0,1,387.124,408.793Z" transform="translate(-221.365 -3.341)" fill="#14365b"/>
        <path id="Path_3960" data-name="Path 3960" d="M345.814,408.793h10.865a.868.868,0,0,1,.846.68l1.966,8.843a1.448,1.448,0,0,1-1.431,1.77c-3.919-.066-9.583-.3-14.509-.3-5.76,0-10.734.314-17.489.314-4.084,0-5.218-4.129-3.507-4.5,7.783-1.7,14.137-1.885,20.863-6.032A4.6,4.6,0,0,1,345.814,408.793Z" transform="translate(-239.016 -3.341)" fill="#14365b"/>
        <path id="Path_3961" data-name="Path 3961" d="M359.033,182.9a231.161,231.161,0,0,1-24.793-3.3c-4.1-.79-8.218-1.67-12.328-2.776a96.833,96.833,0,0,1-12.409-4.1c-1.041-.428-2.094-.909-3.146-1.408a29.917,29.917,0,0,1-3.377-1.97c-1.957-1.292-3.631-2.623-5.3-3.953-3.312-2.652-6.395-5.41-9.436-8.2-6.056-5.6-11.8-11.4-17.336-17.5l4.982-5.566,19.649,14.122c3.243,2.339,6.517,4.622,9.737,6.777,1.6,1.066,3.245,2.077,4.737,2.92a16.123,16.123,0,0,0,1.95.955c.806.316,1.62.627,2.477.914a145.144,145.144,0,0,0,22.38,5.012c7.733,1.224,15.724,2.23,23.442,3.032Z" transform="translate(-257.038 -100.633)" fill="#ff8b7b"/>
        <path id="Path_3962" data-name="Path 3962" d="M372.629,158.981c9.324,2.137,18.752,29.4,18.752,29.4l-19.195,13.767s-5.361-12.7-10.636-23.8C356.024,166.711,363.1,156.795,372.629,158.981Z" transform="translate(-225.618 -91.94)" fill="#004daa"/>
        <path id="Path_3963" data-name="Path 3963" d="M366.245,169.9l-3.805,8.518c3.941,8.5,7.543,16.928,8.5,19.176C370.809,187.532,368.9,175.046,366.245,169.9Z" transform="translate(-224.615 -87.965)" fill="#004589"/>
        <path id="Path_3964" data-name="Path 3964" d="M329.344,160.088s-10.589,11.961-.589,85.991h53.213c.366-8.169-4.767-48.016,3.112-86.5a138.681,138.681,0,0,0-17.814-2.249c-6.8-.328-16.642-.544-22.62,0A99.859,99.859,0,0,0,329.344,160.088Z" transform="translate(-238.069 -92.536)" fill="#004daa"/>
        <path id="Path_3965" data-name="Path 3965" d="M325.369,169.9c-.352,2.8-.623,6.121-.8,10.035a55.628,55.628,0,0,0,14.815-6.961Z" transform="translate(-238.03 -87.965)" fill="#004589"/>
        <path id="Path_3966" data-name="Path 3966" d="M351.178,176.364c-7.119,6.308-34.315,5.677-34.315,5.677l-.9-26.291s15.418,2.259,27.72,2.01C358.884,157.452,358.991,169.441,351.178,176.364Z" transform="translate(-241.077 -92.977)" fill="#004daa"/>
        <path id="Path_3967" data-name="Path 3967" d="M278.462,136.323l-6.829-7.972-7.29,8.075s4.489,7.55,11.636,6.358Z" transform="translate(-259.365 -102.683)" fill="#ff8b7b"/>
        <path id="Path_3968" data-name="Path 3968" d="M263.294,121.485l-2.627,10.4,4.979,6.97,7.29-8.074Z" transform="translate(-260.667 -105.115)" fill="#ff8b7b"/>
        <g id="Group_9634" data-name="Group 9634" transform="translate(105.744 383.572)">
          <path id="Path_3969" data-name="Path 3969" d="M338.751,392.636l.509,11.875h9.953l-.509-11.875Z" transform="translate(-338.751 -392.636)" fill="#ea7063"/>
          <path id="Path_3970" data-name="Path 3970" d="M389.849,392.636H379.9l2.583,11.875h9.953Z" transform="translate(-324.176 -392.636)" fill="#ea7063"/>
        </g>
        <path id="Path_3971" data-name="Path 3971" d="M344.836,127.767c-8.924-4.124-11.745-22.124,13.928-17.666,0,0-3.869,4.287,3.991,7S364.035,136.64,344.836,127.767Z" transform="translate(-233.103 -109.397)" fill="#0f264c"/>
        <path id="Path_3972" data-name="Path 3972" d="M365.257,137.446c-2.555,9.538-3.567,15.249-9.453,19.215-8.853,5.964-19.875-.882-20.22-10.99-.31-9.1,3.922-23.167,14.157-25.089A13.467,13.467,0,0,1,365.257,137.446Z" transform="translate(-234.134 -105.523)" fill="#ff8b7b"/>
        <path id="Path_3973" data-name="Path 3973" d="M356.257,113.885c6.076,3.4,14.312,5.425,13.484,10.242-1.012,5.888,4.98,2.2,3.585,10.977-.911,5.727-11.477,23.087-18.916,22.239-11.181-1.274-9.763-18.353-9.8-27.327C344.588,124.726,344.34,107.221,356.257,113.885Z" transform="translate(-230.945 -108.336)" fill="#0f264c"/>
        <path id="Path_3974" data-name="Path 3974" d="M344.357,119.111c-2.708.639-6.3,16.251,4.194,17.681C360.625,138.437,344.357,119.111,344.357,119.111Z" transform="translate(-232.032 -105.956)" fill="#0f264c"/>
        <path id="Path_3975" data-name="Path 3975" d="M346.424,125.743c-3.319.293-10.805-3.7-9.912-9.71C336.512,116.033,341.283,123.063,346.424,125.743Z" transform="translate(-233.826 -107.046)" fill="#0f264c"/>
        <path id="Path_3976" data-name="Path 3976" d="M349.767,134.43a11.166,11.166,0,0,1-4.908,5.222c-2.862,1.49-4.47-.689-3.823-3.552.584-2.577,2.775-6.458,5.719-6.777C349.656,129.011,350.955,131.722,349.767,134.43Z" transform="translate(-232.247 -102.347)" fill="#ff8b7b"/>
        <path id="Path_3977" data-name="Path 3977" d="M358.446,127.544a13.316,13.316,0,0,0,7.834-9.92S370.751,130.1,358.446,127.544Z" transform="translate(-226.03 -106.483)" fill="#0f264c"/>
        <path id="Path_3978" data-name="Path 3978" d="M368.488,125.6a6.861,6.861,0,0,0-6.481-.639S366.177,119.552,368.488,125.6Z" transform="translate(-224.768 -104.672)" fill="#0f264c"/>
        <path id="Path_3979" data-name="Path 3979" d="M341.57,222.777s11.29,76.029,17.489,104.513c6.787,31.191,32.359,135.091,32.359,135.091h18.221S392.778,361,388.9,330.118c-4.2-33.519-13-107.341-13-107.341Z" transform="translate(-232.008 -69.234)" fill="#9fc6ff"/>
        <path id="Path_3980" data-name="Path 3980" d="M376.231,394.75c-.077,0,1.882,7,1.882,7h20.5l-.376-6.244Z" transform="translate(-219.731 -8.315)" fill="#2c6bdb"/>
        <path id="Path_3981" data-name="Path 3981" d="M347.608,242.807c13.055,2.559,11.674,51.244,10.1,76.284-3.765-17.7-9.277-51.759-13.041-75.932A4.46,4.46,0,0,1,347.608,242.807Z" transform="translate(-230.91 -62.175)" fill="#77b3fc"/>
        <path id="Path_3982" data-name="Path 3982" d="M327.815,222.777s-1.369,74.383-.287,104.721c1.125,31.558,12.147,134.883,12.147,134.883h16.853s.619-101.482,1.368-132.474c.818-33.787,4.9-107.131,4.9-107.131Z" transform="translate(-237.13 -69.234)" fill="#9fc6ff"/>
        <path id="Path_3983" data-name="Path 3983" d="M341.974,448.824a.17.17,0,0,1-.168-.153c-2.97-28.6-9.975-97.793-10.861-122.618-.9-25.339-.084-82.188.19-99.008a.17.17,0,0,1,.169-.168h0a.168.168,0,0,1,.166.172c-.273,16.818-1.093,73.661-.19,98.992.886,24.815,7.888,94,10.858,122.6a.168.168,0,0,1-.15.186Z" transform="translate(-235.918 -67.782)" fill="#77b3fc"/>
        <path id="Path_3984" data-name="Path 3984" d="M334,394.75c-.077,0,.951,7,.951,7h20.5L356,395.5Z" transform="translate(-234.693 -8.315)" fill="#2c6bdb"/>
      </g>
    </g>
  </g>
</svg>
